<?xml version="1.0" encoding="utf-8"?>
<!-- Generator: Adobe Illustrator 21.0.0, SVG Export Plug-In . SVG Version: 6.00 Build 0)  -->
<svg version="1.1" id="Layer_1" xmlns="http://www.w3.org/2000/svg" xmlns:xlink="http://www.w3.org/1999/xlink" x="0px" y="0px"
	 viewBox="0 0 41.9 21.4" style="enable-background:new 0 0 41.9 21.4;" xml:space="preserve">
<style type="text/css">
	.st0{fill:#187DC1;}
</style>
<path d="M12.7,12.4c-0.1,2.5-0.3,2.8-3.2,2.9H8.7c-2.4-0.1-3.1-0.6-3.1-2.7V6.7h9V4.6h-9V1.8H2.9v2.9H0v2.1h2.9v6.6
	c0,1,0.3,2.1,1.1,2.8c0.8,0.8,2.2,1.2,4.3,1.2h1.2c2.5,0,3.8-0.5,4.6-1.3c0.7-0.8,0.8-2,0.8-3.2v-1.5h-2.3L12.7,12.4L12.7,12.4z"/>
<g>
	<rect x="18.3" class="st0" width="2.7" height="2.2"/>
	<rect x="18.3" y="4.6" class="st0" width="2.7" height="12.5"/>
</g>
<path class="st0" d="M39.1,12.2c0,2.7-1.3,3.1-4,3.1h-4c-2.4,0-4.1-0.4-4.2-3.2V9.8c0-2,1-3.3,3.9-3.3h4.5c3.1,0.1,3.8,1,3.8,3.3
	L39.1,12.2L39.1,12.2z M39.8,5.5c-1.2-0.8-2.8-1-4.4-1h-4.3c-1.8,0-3.4,0.5-4.3,1.6V4.6h-2.5v16.8H27v-5.3c0.6,0.9,1.8,1.3,3.8,1.3
	h4.3c2.3,0,4-0.3,5.2-1.2c1.1-0.9,1.6-2.3,1.6-4.3V9.8C41.8,7.6,41,6.3,39.8,5.5z"/>
</svg>
